<?xml version="1.0" standalone="no"?>
<!DOCTYPE svg PUBLIC "-//W3C//DTD SVG 20010904//EN"
 "http://www.w3.org/TR/2001/REC-SVG-20010904/DTD/svg10.dtd">
<svg version="1.0" xmlns="http://www.w3.org/2000/svg"
 width="2560.000000pt" height="2560.000000pt" viewBox="0 0 2560.000000 2560.000000"
 preserveAspectRatio="xMidYMid meet">
<metadata>
Created by potrace 1.11, written by Peter Selinger 2001-2013
</metadata>
<g transform="translate(0.000000,2560.000000) scale(0.100000,-0.100000)"
fill="#000000" stroke="none">
<path d="M6106 19863 c-1 -1 -26 -3 -56 -4 -72 -3 -158 -34 -217 -79 -56 -42
-119 -128 -135 -184 -6 -23 -13 -48 -16 -56 -2 -8 -5 -2156 -6 -4772 l-1
-4758 7090 0 7090 0 0 4758 c-1 4611 -1 4759 -19 4812 -50 147 -159 245 -306
277 -22 5 -13419 11 -13424 6z m6729 -255 c38 -26 53 -61 48 -112 -7 -68 -50
-106 -120 -106 -41 0 -97 33 -111 65 -24 54 4 139 53 164 35 17 97 12 130 -11z
m6262 -4381 c0 -2132 -1 -3876 -3 -3875 -2 3 -84 144 -126 218 -39 67 -153
265 -165 285 -7 11 -15 27 -19 35 -5 8 -23 38 -41 67 -18 29 -33 55 -33 58 0
3 -20 38 -44 78 -39 65 -127 217 -178 307 -11 19 -37 64 -58 100 -21 36 -48
83 -60 105 -13 22 -31 54 -41 70 -11 17 -25 41 -32 55 -6 14 -19 36 -28 50
-14 21 -245 421 -307 530 -11 19 -40 70 -66 113 -25 43 -46 80 -46 82 0 3 -12
24 -27 48 -15 23 -32 51 -39 62 -6 11 -26 46 -45 78 -19 32 -39 66 -44 76 -18
31 -69 94 -110 136 -161 164 -402 207 -600 108 -74 -37 -141 -91 -191 -153
-24 -30 -48 -60 -53 -66 -5 -6 -43 -69 -84 -140 -41 -71 -83 -143 -93 -161
-22 -37 -143 -248 -160 -278 -17 -31 -76 -130 -79 -133 -2 -2 -56 88 -120 200
-65 112 -127 215 -137 231 -11 15 -16 27 -12 27 4 0 0 8 -8 18 -8 9 -41 62
-72 117 -31 55 -61 107 -66 115 -5 8 -24 41 -42 74 -18 32 -45 79 -60 105 -15
25 -39 66 -53 91 -14 25 -30 52 -35 60 -9 13 -257 443 -314 544 -13 23 -56 97
-96 166 -39 69 -82 143 -95 165 -37 66 -201 348 -313 540 -58 99 -112 194
-120 210 -8 17 -23 41 -32 55 -9 14 -30 48 -45 75 -15 28 -120 210 -233 405
-113 195 -214 371 -225 390 -10 19 -41 72 -68 118 -27 45 -49 86 -49 90 0 5
-5 13 -12 20 -12 12 -51 78 -102 172 -53 99 -170 288 -209 338 -22 30 -61 70
-86 90 -25 21 -47 40 -49 45 -2 4 -8 7 -14 7 -5 0 -22 8 -36 18 -46 31 -133
54 -224 59 -70 4 -100 1 -158 -16 -124 -38 -242 -125 -319 -236 -24 -35 -172
-283 -228 -385 -11 -20 -53 -92 -93 -160 -40 -69 -84 -145 -98 -170 -14 -25
-36 -62 -49 -82 -12 -21 -23 -40 -23 -43 0 -3 -16 -31 -35 -61 -19 -30 -35
-56 -35 -58 0 -2 -54 -97 -121 -211 -66 -115 -131 -227 -143 -249 -29 -51
-163 -281 -187 -321 -10 -16 -26 -46 -37 -65 -11 -19 -77 -134 -147 -255 -70
-121 -136 -236 -147 -255 -11 -19 -42 -72 -69 -118 -27 -45 -49 -85 -49 -88 0
-2 -11 -23 -26 -45 -14 -22 -34 -57 -46 -77 -11 -20 -87 -152 -168 -292 -81
-140 -158 -273 -170 -295 -12 -22 -26 -44 -30 -50 -4 -5 -19 -30 -33 -55 -29
-52 -110 -194 -189 -330 -31 -52 -64 -112 -75 -132 l-20 -37 -29 51 c-16 28
-41 72 -56 97 -16 25 -32 55 -38 66 -6 11 -20 36 -31 55 -12 19 -72 123 -134
230 -62 107 -179 310 -260 450 -82 140 -161 278 -177 305 -78 137 -110 191
-118 205 -12 19 -101 173 -128 222 -28 49 -55 81 -132 158 -100 99 -220 151
-350 152 -92 1 -145 -10 -217 -42 -91 -42 -154 -91 -233 -185 -21 -26 -155
-246 -173 -285 -4 -8 -13 -24 -19 -35 -19 -29 -56 -92 -80 -133 -27 -49 -206
-358 -451 -782 -110 -190 -209 -361 -220 -380 -11 -19 -28 -48 -38 -65 -11
-16 -22 -37 -26 -45 -7 -15 -92 -162 -122 -210 -8 -14 -28 -50 -44 -80 -16
-30 -34 -62 -41 -70 -6 -8 -16 -24 -22 -35 -31 -58 -66 -119 -113 -197 -28
-48 -51 -91 -51 -97 0 -6 -4 -11 -10 -11 -5 0 -10 -5 -10 -10 0 -6 -19 -43
-43 -83 -24 -39 -62 -103 -84 -142 -78 -134 -116 -200 -127 -220 -52 -93 -171
-301 -176 -305 -3 -3 -11 -16 -18 -29 -19 -33 -44 -78 -74 -132 -14 -25 -44
-76 -67 -113 -22 -38 -41 -70 -41 -73 0 -2 -16 -28 -35 -58 -19 -30 -32 -55
-28 -55 3 0 -1 -8 -9 -17 -19 -22 -169 -282 -215 -373 l-33 -65 0 3946 c0
2170 2 3948 4 3950 2 2 2853 4 6334 4 l6329 0 0 -3878z m-5680 1716 c22 -38
51 -88 65 -113 14 -25 48 -83 75 -130 28 -47 61 -103 73 -125 12 -22 89 -155
170 -295 81 -140 156 -271 167 -290 11 -19 129 -224 263 -455 133 -231 250
-433 260 -450 9 -16 67 -117 128 -223 62 -107 112 -196 112 -199 0 -6 -40 -52
-133 -153 -146 -159 -148 -160 -162 -147 -7 6 -28 23 -46 37 -18 14 -37 30
-43 35 -9 9 -132 109 -186 152 -8 6 -58 47 -110 90 -52 43 -101 82 -108 88 -7
5 -21 17 -30 25 -9 9 -39 33 -67 55 -27 22 -56 45 -63 52 -84 81 -229 133
-351 127 -136 -8 -241 -67 -352 -200 -41 -49 -84 -100 -95 -114 -12 -14 -90
-108 -174 -210 -83 -102 -159 -194 -168 -205 -9 -11 -37 -45 -62 -75 -25 -30
-47 -57 -50 -60 -4 -4 -129 -159 -136 -169 -4 -5 -39 17 -426 269 -71 45 -128
84 -128 86 0 2 10 21 23 42 12 22 78 136 147 255 69 119 141 245 161 279 20
35 85 149 145 253 61 105 173 298 249 430 76 132 146 253 157 270 10 16 24 42
30 58 7 15 16 27 20 27 4 0 8 4 8 9 0 5 19 42 43 83 24 40 56 96 71 123 16 28
70 122 121 210 99 171 251 433 319 552 22 40 42 72 42 73 1 0 20 -30 41 -67z
m-4136 -2103 c13 -25 29 -52 35 -60 6 -8 24 -37 39 -65 14 -27 36 -66 47 -85
11 -19 106 -183 211 -365 420 -730 526 -912 556 -963 17 -29 31 -54 31 -56 0
-2 36 -65 80 -140 44 -75 80 -140 80 -145 0 -13 -53 -105 -62 -109 -4 -2 -8
-8 -8 -13 0 -10 -480 -846 -511 -891 -10 -15 -19 -29 -19 -32 0 -4 -115 -207
-140 -246 -5 -8 -30 -53 -56 -100 -26 -47 -50 -87 -53 -90 -3 -3 -12 -16 -19
-29 -8 -13 -23 -40 -34 -59 -58 -103 -99 -195 -117 -262 -12 -41 -21 -76 -21
-77 0 -2 0 -7 0 -13 0 -7 -393 -10 -1160 -10 -638 0 -1160 2 -1160 5 0 3 18
35 40 71 22 36 40 68 40 70 0 1 32 58 72 126 106 183 282 488 419 726 134 233
172 299 179 307 4 6 21 35 38 65 16 30 136 239 266 464 130 224 236 410 236
413 0 2 8 16 19 31 10 15 98 164 194 332 96 168 183 319 194 337 10 18 52 92
94 165 42 73 134 232 204 353 70 121 136 236 147 255 105 183 94 176 139 90z
m4389 -606 c110 -89 204 -166 259 -212 24 -20 55 -46 69 -57 13 -11 65 -53
115 -93 139 -112 214 -144 342 -145 96 -1 178 21 249 67 66 43 72 48 206 196
63 69 120 125 127 125 7 0 85 -126 174 -280 89 -154 221 -383 294 -510 73
-126 242 -419 375 -650 133 -231 264 -456 289 -500 26 -44 50 -87 54 -95 4 -8
11 -22 17 -30 10 -14 152 -258 193 -330 41 -74 326 -568 360 -625 l35 -60
-3446 -3 c-1895 -1 -3447 0 -3449 2 -3 3 225 405 367 646 21 36 88 153 150
260 61 107 126 220 144 250 19 30 45 75 58 100 14 25 75 131 135 235 61 105
145 251 188 325 43 74 136 236 208 360 72 124 179 311 239 415 59 105 114 194
122 199 9 7 47 -13 127 -66 63 -41 148 -97 189 -123 41 -27 101 -66 133 -87
32 -21 62 -38 67 -38 5 0 10 -3 12 -8 3 -7 79 -55 133 -83 78 -41 222 -56 313
-32 123 32 207 91 303 211 19 24 41 53 51 63 9 11 31 38 48 59 17 21 39 48 48
59 35 40 92 109 172 206 87 107 149 180 165 199 6 6 41 49 79 96 99 121 90
117 150 67 28 -24 89 -74 136 -113z m3629 -942 c47 -81 124 -214 172 -297 122
-211 376 -651 407 -705 14 -25 56 -99 95 -165 38 -66 81 -140 95 -165 32 -57
269 -470 282 -490 25 -42 245 -424 248 -431 2 -5 -260 -9 -582 -9 l-586 0 0
28 c0 42 -45 176 -81 240 -60 107 -74 132 -284 494 -115 200 -215 372 -221
383 -6 11 -25 43 -42 71 -18 28 -32 54 -32 58 0 4 -8 19 -18 34 -40 58 -84
137 -85 151 0 9 31 70 69 136 39 66 73 127 77 135 4 8 20 36 35 61 15 26 101
175 192 333 91 157 167 286 170 286 3 0 43 -67 89 -148z"/>
<path d="M478 10044 c-2 -1 -19 -6 -38 -9 -103 -18 -231 -114 -289 -216 -35
-63 -39 -74 -54 -172 -21 -132 31 -278 136 -379 32 -32 64 -58 70 -58 6 0 18
-6 26 -13 9 -8 63 -31 121 -51 58 -21 114 -41 125 -46 19 -8 270 -99 430 -157
39 -13 86 -31 105 -38 47 -18 207 -77 300 -110 41 -15 84 -30 95 -35 11 -5
103 -39 205 -75 102 -37 245 -89 318 -116 73 -27 135 -49 138 -49 3 0 20 -6
37 -14 18 -7 46 -18 62 -24 17 -6 73 -26 125 -45 52 -20 154 -57 225 -82 72
-26 209 -76 305 -112 365 -135 771 -258 955 -288 17 -3 64 -12 105 -20 82 -16
237 -41 315 -50 28 -4 59 -8 70 -10 18 -3 70 -7 225 -21 25 -2 122 -7 215 -10
220 -9 15754 -9 15984 0 167 6 251 11 336 21 22 2 67 7 100 10 85 8 267 35
345 51 14 2 61 11 105 19 96 18 93 17 225 50 222 55 493 142 805 257 105 38
264 97 355 130 91 33 188 68 215 78 28 10 93 34 145 53 187 68 435 159 450
164 8 4 17 7 20 8 3 1 12 5 20 8 21 9 183 68 195 71 6 2 17 6 25 9 8 3 92 33
185 67 176 64 265 97 300 111 11 4 97 35 190 69 495 179 494 179 567 253 151
151 179 372 72 555 -58 99 -184 188 -299 211 -54 11 -162 7 -210 -8 -37 -11
-348 -124 -432 -157 -34 -13 -66 -24 -72 -24 -6 0 -19 -4 -29 -10 -20 -11
-646 -240 -657 -240 -4 0 -21 -6 -38 -14 -18 -8 -201 -76 -407 -151 -206 -75
-418 -153 -470 -172 -52 -19 -106 -38 -120 -43 -14 -4 -124 -45 -245 -89 -215
-80 -470 -168 -550 -191 -71 -20 -190 -52 -205 -55 -8 -2 -42 -10 -75 -18 -33
-9 -71 -18 -85 -21 -14 -2 -56 -11 -95 -19 -38 -9 -95 -18 -125 -22 -30 -4
-57 -8 -60 -10 -3 -2 -39 -6 -80 -10 -41 -3 -82 -8 -90 -10 -8 -2 -53 -7 -100
-10 -47 -4 -101 -8 -120 -11 -56 -7 -16079 -7 -16156 0 -38 4 -94 9 -124 11
-30 2 -77 7 -105 10 -27 3 -67 8 -87 11 -53 6 -110 14 -133 18 -11 2 -40 7
-65 11 -171 28 -507 114 -700 180 -108 37 -419 150 -455 165 -11 5 -103 39
-205 75 -102 37 -252 92 -335 122 -281 103 -330 121 -705 257 -370 135 -451
165 -520 191 -19 8 -118 44 -220 80 -184 66 -238 86 -295 110 -68 28 -154 48
-222 50 -40 2 -73 1 -75 -1z"/>
<path d="M4005 9920 c-9 -15 4 -412 15 -455 18 -74 49 -152 89 -220 32 -54
128 -161 190 -209 47 -36 148 -84 227 -107 l79 -24 8185 1 c4502 0 8199 3
8215 6 92 19 114 27 214 76 129 63 259 207 321 352 43 103 52 164 55 378 2
111 0 202 -3 203 -30 4 -17585 3 -17587 -1z m10447 -50 c-13 -126 -104 -241
-230 -292 l-57 -23 -1373 -1 c-1045 -2 -1385 1 -1425 10 -124 29 -237 137
-261 251 -13 61 -15 78 -12 84 2 3 759 6 1683 6 l1678 0 -3 -35z"/>
<path d="M6512 7385 c2 -1 55 -6 118 -10 63 -4 119 -9 123 -12 5 -3 26 -8 46
-10 69 -9 271 -64 336 -92 11 -5 36 -15 55 -21 48 -18 281 -133 316 -157 16
-11 47 -32 69 -46 145 -95 353 -290 457 -429 66 -87 158 -227 158 -239 0 -15
25 -10 41 9 9 9 44 42 79 72 34 30 77 69 95 85 41 38 111 101 210 190 42 39
92 84 110 100 18 17 68 62 110 100 43 39 90 81 105 95 15 14 65 59 111 100
128 116 200 181 247 225 l43 40 -1416 1 c-779 1 -1415 1 -1413 -1z"/>
<path d="M16270 7379 c0 -4 34 -38 76 -75 42 -38 89 -80 104 -94 15 -14 65
-59 111 -100 45 -41 92 -84 105 -95 50 -45 167 -151 188 -170 52 -47 201 -182
220 -200 17 -16 166 -151 232 -210 6 -5 30 -27 53 -48 36 -33 42 -36 48 -20
11 29 121 192 182 268 86 108 236 255 336 327 5 4 24 18 40 31 89 70 234 154
365 211 123 54 141 61 168 67 4 1 32 10 62 21 66 22 163 48 205 55 17 2 36 6
44 9 8 2 46 7 85 10 39 4 74 9 78 13 4 4 -602 7 -1347 6 -745 0 -1355 -3
-1355 -6z"/>
<path d="M18990 7380 c0 -5 7 -7 15 -4 8 4 15 8 15 10 0 2 -7 4 -15 4 -8 0
-15 -4 -15 -10z"/>
<path d="M19038 7383 c7 -3 16 -2 19 1 4 3 -2 6 -13 5 -11 0 -14 -3 -6 -6z"/>
<path d="M6205 6910 c-262 -44 -498 -143 -705 -297 -72 -54 -238 -222 -294
-298 -119 -160 -226 -371 -261 -515 -44 -184 -56 -271 -56 -418 -1 -130 1
-161 17 -257 73 -449 327 -830 719 -1080 164 -104 366 -179 580 -216 84 -14
355 -20 416 -9 24 4 63 11 86 14 158 21 396 109 544 201 151 94 312 236 409
360 17 22 36 47 43 55 29 35 116 179 137 225 58 128 69 153 83 200 23 71 54
202 62 258 3 27 9 59 11 70 10 45 6 295 -6 372 -39 259 -114 457 -248 655 -39
58 -82 118 -97 134 -78 90 -164 173 -250 245 -136 113 -455 257 -640 290 -33
5 -76 13 -95 16 -81 15 -355 12 -455 -5z m419 -915 c124 -40 181 -72 269 -154
40 -37 114 -138 134 -181 50 -109 65 -168 68 -266 6 -185 -61 -352 -194 -484
-122 -122 -288 -191 -456 -191 -260 0 -508 169 -603 411 -80 204 -58 424 61
600 50 75 186 200 217 200 5 0 10 4 10 8 0 10 44 28 140 58 102 32 251 32 354
-1z"/>
<path d="M6387 5560 c-158 -48 -185 -266 -44 -354 116 -71 261 -9 293 125 33
144 -106 272 -249 229z"/>
<path d="M18950 6918 c-222 -42 -301 -65 -440 -130 -85 -39 -235 -123 -256
-143 -6 -5 -24 -19 -39 -30 -68 -47 -236 -214 -300 -298 -142 -186 -260 -456
-300 -687 -22 -129 -23 -339 -3 -480 13 -94 14 -100 38 -186 66 -245 196 -480
359 -649 331 -345 718 -509 1176 -500 191 4 336 29 493 86 65 24 234 101 242
110 3 3 19 13 36 22 116 60 328 250 437 392 354 464 419 1074 172 1609 -37 79
-113 208 -127 214 -4 2 -8 8 -8 14 0 14 -113 150 -186 222 -119 119 -236 202
-401 284 -116 58 -321 126 -418 138 -27 3 -54 9 -60 12 -15 10 -364 9 -415 0z
m385 -923 c84 -28 132 -49 175 -78 48 -33 190 -172 190 -188 0 -5 11 -27 25
-49 73 -115 101 -315 64 -455 -36 -138 -105 -254 -206 -345 -59 -53 -183 -119
-261 -140 -263 -69 -543 35 -703 263 -61 87 -89 157 -108 272 -9 49 -7 176 3
224 59 282 313 504 601 523 55 4 172 -10 220 -27z"/>
<path d="M19125 5566 c-5 -3 -22 -7 -37 -10 -66 -15 -127 -103 -128 -184 0
-128 124 -225 244 -191 160 45 197 258 61 351 -37 26 -114 44 -140 34z"/>
</g>
</svg>
